<?xml version="1.0" encoding="UTF-8" standalone="no"?>
<!-- Created with Inkscape (http://www.inkscape.org/) -->

<svg
   xmlns:dc="http://purl.org/dc/elements/1.1/"
   xmlns:cc="http://creativecommons.org/ns#"
   xmlns:rdf="http://www.w3.org/1999/02/22-rdf-syntax-ns#"
   xmlns:svg="http://www.w3.org/2000/svg"
   xmlns="http://www.w3.org/2000/svg"
   xmlns:sodipodi="http://sodipodi.sourceforge.net/DTD/sodipodi-0.dtd"
   xmlns:inkscape="http://www.inkscape.org/namespaces/inkscape"
   sodipodi:docname="rysunek odbicie 2d.svg"
   inkscape:version="0.92.2 (5c3e80d, 2017-08-06)"
   id="svg8"
   version="1.1"
   viewBox="0 0 210 297"
   height="297mm"
   width="210mm"
   inkscape:export-filename="C:\Users\PC-piotrek\Desktop\rysunek odbicie 2d.png"
   inkscape:export-xdpi="68.530128"
   inkscape:export-ydpi="68.530128">
  <sodipodi:namedview
     inkscape:guide-bbox="true"
     showguides="true"
     gridtolerance="1"
     guidetolerance="19"
     inkscape:measure-end="370.251,831.245"
     inkscape:measure-start="368.159,829.222"
     inkscape:window-maximized="1"
     inkscape:window-y="-8"
     inkscape:window-x="-8"
     inkscape:window-height="705"
     inkscape:window-width="1366"
     showgrid="false"
     inkscape:current-layer="layer1"
     inkscape:document-units="mm"
     inkscape:cy="791.58476"
     inkscape:cx="372.50685"
     inkscape:zoom="1.0303818"
     inkscape:pageshadow="2"
     inkscape:pageopacity="0.0"
     borderopacity="1.0"
     bordercolor="#666666"
     pagecolor="#ffffff"
     id="base">
    <inkscape:grid
       id="grid3731"
       type="xygrid" />
  </sodipodi:namedview>
  <defs
     id="defs2">
    <marker
       inkscape:stockid="Arrow1Sstart"
       orient="auto"
       refY="0.0"
       refX="0.0"
       id="marker8652"
       style="overflow:visible"
       inkscape:isstock="true">
      <path
         id="path8650"
         d="M 0.0,0.0 L 5.0,-5.0 L -12.5,0.0 L 5.0,5.0 L 0.0,0.0 z "
         style="fill-rule:evenodd;stroke:#0000ff;stroke-width:1pt;stroke-opacity:1;fill:#0000ff;fill-opacity:1"
         transform="scale(0.2) translate(6,0)" />
    </marker>
    <marker
       inkscape:isstock="true"
       style="overflow:visible;"
       id="marker8426"
       refX="0.0"
       refY="0.0"
       orient="auto"
       inkscape:stockid="Arrow1Send">
      <path
         transform="scale(0.2) rotate(180) translate(6,0)"
         style="fill-rule:evenodd;stroke:#0000ff;stroke-width:1pt;stroke-opacity:1;fill:#0000ff;fill-opacity:1"
         d="M 0.0,0.0 L 5.0,-5.0 L -12.5,0.0 L 5.0,5.0 L 0.0,0.0 z "
         id="path8424" />
    </marker>
    <marker
       inkscape:collect="always"
       inkscape:stockid="Arrow1Send"
       orient="auto"
       refY="0.0"
       refX="0.0"
       id="marker8204"
       style="overflow:visible;"
       inkscape:isstock="true">
      <path
         id="path8202"
         d="M 0.0,0.0 L 5.0,-5.0 L -12.5,0.0 L 5.0,5.0 L 0.0,0.0 z "
         style="fill-rule:evenodd;stroke:#0000ff;stroke-width:1pt;stroke-opacity:1;fill:#0000ff;fill-opacity:1"
         transform="scale(0.2) rotate(180) translate(6,0)" />
    </marker>
    <marker
       inkscape:collect="always"
       inkscape:isstock="true"
       style="overflow:visible;"
       id="marker8150"
       refX="0.0"
       refY="0.0"
       orient="auto"
       inkscape:stockid="Arrow1Send">
      <path
         transform="scale(0.2) rotate(180) translate(6,0)"
         style="fill-rule:evenodd;stroke:#0000ff;stroke-width:1pt;stroke-opacity:1;fill:#0000ff;fill-opacity:1"
         d="M 0.0,0.0 L 5.0,-5.0 L -12.5,0.0 L 5.0,5.0 L 0.0,0.0 z "
         id="path8148" />
    </marker>
    <marker
       inkscape:collect="always"
       inkscape:stockid="Arrow1Send"
       orient="auto"
       refY="0.0"
       refX="0.0"
       id="marker8044"
       style="overflow:visible;"
       inkscape:isstock="true">
      <path
         id="path8042"
         d="M 0.0,0.0 L 5.0,-5.0 L -12.5,0.0 L 5.0,5.0 L 0.0,0.0 z "
         style="fill-rule:evenodd;stroke:#0000ff;stroke-width:1pt;stroke-opacity:1;fill:#0000ff;fill-opacity:1"
         transform="scale(0.2) rotate(180) translate(6,0)" />
    </marker>
    <marker
       inkscape:collect="always"
       inkscape:isstock="true"
       style="overflow:visible;"
       id="marker7944"
       refX="0.0"
       refY="0.0"
       orient="auto"
       inkscape:stockid="Arrow1Send">
      <path
         transform="scale(0.2) rotate(180) translate(6,0)"
         style="fill-rule:evenodd;stroke:#0000ff;stroke-width:1pt;stroke-opacity:1;fill:#0000ff;fill-opacity:1"
         d="M 0.0,0.0 L 5.0,-5.0 L -12.5,0.0 L 5.0,5.0 L 0.0,0.0 z "
         id="path7942" />
    </marker>
    <marker
       inkscape:stockid="Arrow1Mend"
       orient="auto"
       refY="0.0"
       refX="0.0"
       id="marker7718"
       style="overflow:visible;"
       inkscape:isstock="true">
      <path
         id="path7716"
         d="M 0.0,0.0 L 5.0,-5.0 L -12.5,0.0 L 5.0,5.0 L 0.0,0.0 z "
         style="fill-rule:evenodd;stroke:#000000;stroke-width:1pt;stroke-opacity:1;fill:#000000;fill-opacity:1"
         transform="scale(0.4) rotate(180) translate(10,0)" />
    </marker>
    <inkscape:perspective
       id="perspective7583"
       inkscape:persp3d-origin="105 : 99 : 1"
       inkscape:vp_z="210 : 148.5 : 1"
       inkscape:vp_y="0 : 1000 : 0"
       inkscape:vp_x="0 : 148.5 : 1"
       sodipodi:type="inkscape:persp3d" />
    <marker
       inkscape:stockid="Arrow1Mend"
       orient="auto"
       refY="0.0"
       refX="0.0"
       id="marker6230"
       style="overflow:visible;"
       inkscape:isstock="true">
      <path
         id="path6228"
         d="M 0.0,0.0 L 5.0,-5.0 L -12.5,0.0 L 5.0,5.0 L 0.0,0.0 z "
         style="fill-rule:evenodd;stroke:#0000ff;stroke-width:1pt;stroke-opacity:1;fill:#0000ff;fill-opacity:1"
         transform="scale(0.4) rotate(180) translate(10,0)" />
    </marker>
    <marker
       inkscape:stockid="Arrow1Mend"
       orient="auto"
       refY="0.0"
       refX="0.0"
       id="marker5948"
       style="overflow:visible;"
       inkscape:isstock="true">
      <path
         id="path5946"
         d="M 0.0,0.0 L 5.0,-5.0 L -12.5,0.0 L 5.0,5.0 L 0.0,0.0 z "
         style="fill-rule:evenodd;stroke:#0000ff;stroke-width:1pt;stroke-opacity:1;fill:#0000ff;fill-opacity:1"
         transform="scale(0.4) rotate(180) translate(10,0)" />
    </marker>
    <marker
       inkscape:collect="always"
       inkscape:stockid="Arrow1Send"
       orient="auto"
       refY="0.0"
       refX="0.0"
       id="marker5249"
       style="overflow:visible;"
       inkscape:isstock="true">
      <path
         id="path5247"
         d="M 0.0,0.0 L 5.0,-5.0 L -12.5,0.0 L 5.0,5.0 L 0.0,0.0 z "
         style="fill-rule:evenodd;stroke:#000000;stroke-width:1pt;stroke-opacity:1;fill:#000000;fill-opacity:1"
         transform="scale(0.2) rotate(180) translate(6,0)" />
    </marker>
    <marker
       inkscape:collect="always"
       inkscape:isstock="true"
       style="overflow:visible"
       id="Arrow1Sstart"
       refX="0.0"
       refY="0.0"
       orient="auto"
       inkscape:stockid="Arrow1Sstart">
      <path
         transform="scale(0.2) translate(6,0)"
         style="fill-rule:evenodd;stroke:#000000;stroke-width:1pt;stroke-opacity:1;fill:#000000;fill-opacity:1"
         d="M 0.0,0.0 L 5.0,-5.0 L -12.5,0.0 L 5.0,5.0 L 0.0,0.0 z "
         id="path4577" />
    </marker>
    <marker
       inkscape:isstock="true"
       style="overflow:visible;"
       id="marker5071"
       refX="0.0"
       refY="0.0"
       orient="auto"
       inkscape:stockid="Arrow1Mend">
      <path
         transform="scale(0.4) rotate(180) translate(10,0)"
         style="fill-rule:evenodd;stroke:#000000;stroke-width:1pt;stroke-opacity:1;fill:#000000;fill-opacity:1"
         d="M 0.0,0.0 L 5.0,-5.0 L -12.5,0.0 L 5.0,5.0 L 0.0,0.0 z "
         id="path5069" />
    </marker>
    <marker
       inkscape:collect="always"
       inkscape:isstock="true"
       style="overflow:visible;"
       id="marker4941"
       refX="0.0"
       refY="0.0"
       orient="auto"
       inkscape:stockid="Arrow1Send">
      <path
         transform="scale(0.2) rotate(180) translate(6,0)"
         style="fill-rule:evenodd;stroke:#000000;stroke-width:1pt;stroke-opacity:1;fill:#000000;fill-opacity:1"
         d="M 0.0,0.0 L 5.0,-5.0 L -12.5,0.0 L 5.0,5.0 L 0.0,0.0 z "
         id="path4939" />
    </marker>
    <marker
       inkscape:isstock="true"
       style="overflow:visible;"
       id="Arrow1Mend"
       refX="0.0"
       refY="0.0"
       orient="auto"
       inkscape:stockid="Arrow1Mend">
      <path
         transform="scale(0.4) rotate(180) translate(10,0)"
         style="fill-rule:evenodd;stroke:#000000;stroke-width:1pt;stroke-opacity:1;fill:#000000;fill-opacity:1"
         d="M 0.0,0.0 L 5.0,-5.0 L -12.5,0.0 L 5.0,5.0 L 0.0,0.0 z "
         id="path4574" />
    </marker>
    <marker
       inkscape:isstock="true"
       style="overflow:visible;"
       id="Arrow2Lend"
       refX="0.0"
       refY="0.0"
       orient="auto"
       inkscape:stockid="Arrow2Lend">
      <path
         transform="scale(1.1) rotate(180) translate(1,0)"
         d="M 8.7185878,4.0337352 L -2.2072895,0.016013256 L 8.7185884,-4.0017078 C 6.9730900,-1.6296469 6.9831476,1.6157441 8.7185878,4.0337352 z "
         style="fill-rule:evenodd;stroke-width:0.625;stroke-linejoin:round;stroke:#000000;stroke-opacity:1;fill:#000000;fill-opacity:1"
         id="path4586" />
    </marker>
    <marker
       inkscape:isstock="true"
       style="overflow:visible;"
       id="Arrow1Send"
       refX="0.0"
       refY="0.0"
       orient="auto"
       inkscape:stockid="Arrow1Send">
      <path
         transform="scale(0.2) rotate(180) translate(6,0)"
         style="fill-rule:evenodd;stroke:#000000;stroke-width:1pt;stroke-opacity:1;fill:#000000;fill-opacity:1"
         d="M 0.0,0.0 L 5.0,-5.0 L -12.5,0.0 L 5.0,5.0 L 0.0,0.0 z "
         id="path4580" />
    </marker>
  </defs>
  <metadata
     id="metadata5">
    <rdf:RDF>
      <cc:Work
         rdf:about="">
        <dc:format>image/svg+xml</dc:format>
        <dc:type
           rdf:resource="http://purl.org/dc/dcmitype/StillImage" />
        <dc:title></dc:title>
      </cc:Work>
    </rdf:RDF>
  </metadata>
  <g
     id="layer1"
     inkscape:groupmode="layer"
     inkscape:label="Layer 1">
    <flowRoot
       style="fill:black;fill-opacity:1;stroke:none;font-family:sans-serif;font-style:normal;font-weight:normal;font-size:40px;line-height:1.25;letter-spacing:0px;word-spacing:0px"
       id="flowRoot3705"
       xml:space="preserve"><flowRegion
         id="flowRegion3707"><rect
           y="488.23398"
           x="-174.28572"
           height="61.42857"
           width="498.57144"
           id="rect3709" /></flowRegion><flowPara
         id="flowPara3711" /></flowRoot>    <flowRoot
       style="fill:black;fill-opacity:1;stroke:none;font-family:sans-serif;font-style:normal;font-weight:normal;font-size:40px;line-height:1.25;letter-spacing:0px;word-spacing:0px"
       id="flowRoot3713"
       xml:space="preserve"><flowRegion
         id="flowRegion3715"><rect
           y="169.66254"
           x="184.28572"
           height="58.57143"
           width="0"
           id="rect3717" /></flowRegion><flowPara
         id="flowPara3719" /></flowRoot>    <flowRoot
       style="fill:black;fill-opacity:1;stroke:none;font-family:sans-serif;font-style:normal;font-weight:normal;font-size:40px;line-height:1.25;letter-spacing:0px;word-spacing:0px"
       id="flowRoot3721"
       xml:space="preserve"><flowRegion
         id="flowRegion3723"><rect
           y="142.51968"
           x="190"
           height="58.57143"
           width="35.714287"
           id="rect3725" /></flowRegion><flowPara
         id="flowPara3727" /></flowRoot>    <path
       sodipodi:nodetypes="cc"
       inkscape:connector-curvature="0"
       id="path3729"
       d="M 190.5,154.125 H 10.583333 l 0,-142.875"
       style="fill:none;stroke:#000000;stroke-width:1.83531034px;stroke-linecap:butt;stroke-linejoin:miter;stroke-opacity:1;marker-end:url(#marker5249);marker-start:url(#Arrow1Sstart)" />
    <circle
       style="fill:none;stroke:#000000;stroke-width:1.87013876;stroke-miterlimit:4;stroke-dasharray:none;stroke-opacity:1"
       r="20.802721"
       cy="72.19886"
       cx="95.106911"
       id="path3733" />
    <circle
       style="fill:none;stroke:#000000;stroke-width:1.87013876;stroke-miterlimit:4;stroke-dasharray:none;stroke-opacity:1"
       r="20.802721"
       cy="107.86065"
       cx="116.75871"
       id="path3733-7" />
    <path
       inkscape:connector-curvature="0"
       id="path4563"
       d="M 26.76511,137.5883 165.9713,54.358531"
       style="fill:none;stroke:#000000;stroke-width:1.46016836;stroke-linecap:butt;stroke-linejoin:miter;stroke-miterlimit:4;stroke-dasharray:none;stroke-dashoffset:0;stroke-opacity:1;marker-end:url(#Arrow1Send)" />
    <path
       sodipodi:nodetypes="cc"
       inkscape:connector-curvature="0"
       id="path4893"
       d="M 133.74053,137.57884 C 104.47218,86.308349 94.514779,69.268102 71.332372,27.621607"
       style="fill:none;stroke:#000000;stroke-width:1.64549756;stroke-linecap:butt;stroke-linejoin:miter;stroke-miterlimit:4;stroke-dasharray:none;stroke-opacity:1;marker-end:url(#marker4941)" />
    <path
       inkscape:connector-curvature="0"
       id="path5707"
       d="m 38.786352,89.883129 h 68.351798 47.54907 29.71818"
       style="fill:none;stroke:#000000;stroke-width:0.63461167;stroke-linecap:butt;stroke-linejoin:miter;stroke-miterlimit:4;stroke-dasharray:0.63461165, 0.63461165;stroke-dashoffset:2.59899998;stroke-opacity:1" />
    <path
       inkscape:connector-curvature="0"
       id="path5707-2"
       d="m 38.642385,72.198866 h 68.351795 47.54907 29.71818"
       style="fill:none;stroke:#000000;stroke-width:0.63461173;stroke-linecap:butt;stroke-linejoin:miter;stroke-miterlimit:4;stroke-dasharray:0.63461166, 0.63461166;stroke-dashoffset:2.59899998;stroke-opacity:1" />
    <path
       inkscape:connector-curvature="0"
       id="path5707-5"
       d="m 38.642385,107.86067 h 68.351795 47.54907 29.71818"
       style="fill:none;stroke:#000000;stroke-width:0.63461173;stroke-linecap:butt;stroke-linejoin:miter;stroke-miterlimit:4;stroke-dasharray:0.63461166, 0.63461166;stroke-dashoffset:2.59899998;stroke-opacity:1" />
    <path
       inkscape:connector-curvature="0"
       id="path5730"
       d="M 95.106911,72.198867 127.7969,69.227049"
       style="fill:none;stroke:#0000ff;stroke-width:1.5331769;stroke-linecap:butt;stroke-linejoin:miter;stroke-miterlimit:4;stroke-dasharray:none;stroke-opacity:1;marker-end:url(#marker8150)" />
    <path
       inkscape:connector-curvature="0"
       id="path5938"
       d="m 96.592821,72.198866 7.429539,13.373177"
       style="fill:none;stroke:#0000ff;stroke-width:1.34447825;stroke-linecap:butt;stroke-linejoin:miter;stroke-miterlimit:4;stroke-dasharray:none;stroke-opacity:1;marker-end:url(#marker8204)" />
    <path
       inkscape:connector-curvature="0"
       id="path6220"
       d="M 95.106911,72.198867 121.85326,57.99569"
       style="fill:none;stroke:#0000ff;stroke-width:1.19621503;stroke-linecap:butt;stroke-linejoin:miter;stroke-miterlimit:4;stroke-dasharray:none;stroke-opacity:1;marker-end:url(#marker8044)" />
    <circle
       r="1.0995976"
       cy="89.793884"
       cx="106.43789"
       id="path7571"
       style="fill:#fe0000;fill-opacity:1;stroke:#ff0000;stroke-width:0.22464131;stroke-linecap:round;stroke-linejoin:bevel;stroke-miterlimit:4;stroke-dasharray:none;stroke-dashoffset:9.82299137;stroke-opacity:1;paint-order:markers stroke fill" />
    <ellipse
       ry="0.22532737"
       rx="0.11717023"
       cy="90.199471"
       cx="106.55505"
       id="path7573"
       style="fill:#fe0000;fill-opacity:1;stroke:#ff0000;stroke-width:0.22464131;stroke-linecap:round;stroke-linejoin:bevel;stroke-miterlimit:4;stroke-dasharray:none;stroke-dashoffset:9.82299137;stroke-opacity:1;paint-order:markers stroke fill" />
    <text
       id="text7577"
       y="10.842245"
       x="55.197941"
       style="font-style:normal;font-weight:normal;font-size:10.58333302px;line-height:1.25;font-family:sans-serif;letter-spacing:0px;word-spacing:0px;fill:#000000;fill-opacity:1;stroke:none;stroke-width:0.26458332"
       xml:space="preserve"><tspan
         style="stroke-width:0.26458332"
         y="20.206015"
         x="55.197941"
         id="tspan7575"
         sodipodi:role="line" /></text>
    <text
       id="text7587"
       y="23.189154"
       x="26.146393"
       style="font-style:normal;font-weight:normal;font-size:7.05555556px;line-height:1.25;font-family:sans-serif;letter-spacing:0px;word-spacing:0px;fill:#000000;fill-opacity:1;stroke:none;stroke-width:0.26458332;"
       xml:space="preserve"><tspan
         style="stroke-width:0.26458332;font-size:7.05555556px;"
         y="31.928671"
         x="26.146393"
         id="tspan7585"
         sodipodi:role="line" /></text>
    <text
       id="text7591"
       y="30.452042"
       x="27.962116"
       style="font-style:normal;font-weight:normal;font-size:7.05555556px;line-height:1.25;font-family:sans-serif;letter-spacing:0px;word-spacing:0px;fill:#000000;fill-opacity:1;stroke:none;stroke-width:0.26458332;"
       xml:space="preserve"><tspan
         style="stroke-width:0.26458332;font-size:7.05555556px;"
         y="39.191559"
         x="27.962116"
         id="tspan7589"
         sodipodi:role="line" /></text>
    <text
       id="text7595"
       y="63.465481"
       x="164.67813"
       style="font-style:normal;font-weight:normal;font-size:7.9248457px;line-height:1.25;font-family:sans-serif;letter-spacing:0px;word-spacing:0px;fill:#000000;fill-opacity:1;stroke:none;stroke-width:0.2971817"
       xml:space="preserve"><tspan
         style="stroke-width:0.2971817"
         y="63.465481"
         x="164.67813"
         id="tspan7593"
         sodipodi:role="line">x'</tspan></text>
    <text
       id="text7599"
       y="26.945177"
       x="75.470543"
       style="font-style:normal;font-weight:normal;font-size:7.9248457px;line-height:1.25;font-family:sans-serif;letter-spacing:0px;word-spacing:0px;fill:#000000;fill-opacity:1;stroke:none;stroke-width:0.2971817"
       xml:space="preserve"><tspan
         style="stroke-width:0.2971817"
         y="26.945177"
         x="75.470543"
         id="tspan7597"
         sodipodi:role="line">y'</tspan></text>
    <text
       id="text7603"
       y="14.110544"
       x="14.888918"
       style="font-style:normal;font-weight:normal;font-size:7.05555534px;line-height:1.25;font-family:sans-serif;letter-spacing:0px;word-spacing:0px;fill:#000000;fill-opacity:1;stroke:none;stroke-width:0.26458332"
       xml:space="preserve"><tspan
         style="stroke-width:0.26458332"
         y="14.110544"
         x="14.888918"
         id="tspan7601"
         sodipodi:role="line">y</tspan></text>
    <text
       id="text7607"
       y="162.53021"
       x="184.38924"
       style="font-style:normal;font-weight:normal;font-size:7.05555534px;line-height:1.25;font-family:sans-serif;letter-spacing:0px;word-spacing:0px;fill:#000000;fill-opacity:1;stroke:none;stroke-width:0.26458332"
       xml:space="preserve"><tspan
         style="stroke-width:0.26458332"
         y="162.53021"
         x="184.38924"
         id="tspan7605"
         sodipodi:role="line">x</tspan></text>
    <path
       inkscape:connector-curvature="0"
       id="path7708"
       d="M 116.9292,108.13923 159.38796,76.621779"
       style="fill:none;stroke:#0000ff;stroke-width:1.55621827;stroke-linecap:butt;stroke-linejoin:miter;stroke-miterlimit:4;stroke-dasharray:none;stroke-opacity:1;marker-end:url(#marker7944)" />
    <path
       inkscape:connector-curvature="0"
       id="path8416"
       d="m 113.1825,101.09297 3.77296,7.03603 45.92243,-24.896642"
       style="fill:none;stroke:#0000ff;stroke-width:1.5331769;stroke-linecap:butt;stroke-linejoin:miter;stroke-miterlimit:4;stroke-dasharray:none;stroke-opacity:1;marker-start:url(#marker8652);marker-end:url(#marker8426)" />
    <g
       transform="matrix(1.1232065,0,0,1.1232065,113.26981,-33.180445)"
       id="g206"
       style="stroke:#ff000b;stroke-opacity:1;stroke-width:0.64369286;stroke-miterlimit:4;stroke-dasharray:1.28738571,0.64369286;stroke-dashoffset:0">
      <g
         id="g304"
         style="stroke:#ff000b;stroke-opacity:1;stroke-width:0.64369286;stroke-miterlimit:4;stroke-dasharray:1.28738571,0.64369286;stroke-dashoffset:0">
        <path
           inkscape:connector-curvature="0"
           id="path258"
           d="M -5.5208066,109.54926 40.314752,82.843946"
           style="fill:none;stroke:#ff000b;stroke-width:0.64369286;stroke-linecap:square;stroke-linejoin:miter;stroke-miterlimit:4;stroke-dasharray:1.28738571,0.64369286;stroke-dashoffset:0;stroke-opacity:1" />
        <path
           inkscape:connector-curvature="0"
           id="path274"
           d="m 40.315617,82.744565 c 4.853764,8.137443 7.411066,17.386815 7.411066,26.804695"
           style="fill:none;stroke:#ff000b;stroke-width:0.64369286;stroke-linecap:butt;stroke-linejoin:miter;stroke-miterlimit:4;stroke-dasharray:1.28738571,0.64369286;stroke-opacity:1;stroke-dashoffset:0" />
        <path
           inkscape:connector-curvature="0"
           id="path276"
           d="M -5.5208066,109.54926 H 47.527021"
           style="fill:none;stroke:#ff000b;stroke-width:0.64369286;stroke-linecap:square;stroke-linejoin:miter;stroke-miterlimit:4;stroke-dasharray:1.28738571,0.64369286;stroke-dashoffset:0;stroke-opacity:1" />
        <path
           inkscape:connector-curvature="0"
           id="path278"
           d="m 21.053138,93.397276 0.845583,0.845582 m 0,-0.845582 -0.845583,0.845582"
           style="fill:none;stroke:#ff000b;stroke-width:0.64369286;stroke-linecap:square;stroke-linejoin:miter;stroke-miterlimit:4;stroke-dasharray:1.28738571,0.64369286;stroke-opacity:1;stroke-dashoffset:0" />
      </g>
    </g>
    <circle
       r="1.0995976"
       cy="107.89219"
       cx="117.01927"
       id="path7571-7"
       style="fill:#fe0000;fill-opacity:1;stroke:#ff0000;stroke-width:0.22464131;stroke-linecap:round;stroke-linejoin:bevel;stroke-miterlimit:4;stroke-dasharray:none;stroke-dashoffset:9.82299137;stroke-opacity:1;paint-order:markers stroke fill" />
    <circle
       r="1.0995976"
       cy="71.984016"
       cx="96.25309"
       id="path7571-1"
       style="fill:#fe0000;fill-opacity:1;stroke:#ff0000;stroke-width:0.22464131;stroke-linecap:round;stroke-linejoin:bevel;stroke-miterlimit:4;stroke-dasharray:none;stroke-dashoffset:9.82299137;stroke-opacity:1;paint-order:markers stroke fill" />
    <text
       id="text1288"
       y="57.294151"
       x="41.598656"
       style="font-style:normal;font-weight:normal;font-size:10.58333302px;line-height:1.25;font-family:sans-serif;letter-spacing:0px;word-spacing:0px;fill:#000000;fill-opacity:1;stroke:none;stroke-width:0.26458332"
       xml:space="preserve"><tspan
         style="stroke-width:0.26458332"
         y="66.657921"
         x="41.598656"
         id="tspan1286"
         sodipodi:role="line" /></text>
    <g
       style="font-style:normal;font-variant:normal;font-weight:normal;font-stretch:normal;letter-spacing:normal;word-spacing:normal;text-anchor:start;fill:#1b00ff;fill-opacity:1;fill-rule:evenodd;stroke:#000000;stroke-linecap:butt;stroke-linejoin:miter;stroke-miterlimit:10.43299961;stroke-dasharray:none;stroke-dashoffset:0;stroke-opacity:1"
       transform="matrix(0.17151731,0,0,-0.17151731,-153.1452,122.71266)"
       id="g5445">
      <path
         id="path1540"
         d="m 1634.4003,372.08692 -0.07,-0.06 -0.07,-0.07 -0.08,-0.07 -0.08,-0.07 -0.08,-0.08 -0.09,-0.08 -0.09,-0.09 -0.1,-0.08 -0.09,-0.09 -0.1,-0.09 -0.19,-0.19 -0.2,-0.2 -0.19,-0.2 -0.09,-0.11 -0.09,-0.1 -0.09,-0.1 -0.08,-0.1 -0.08,-0.11 -0.08,-0.1 -0.07,-0.1 -0.06,-0.1 -0.06,-0.1 -0.06,-0.1 -0.04,-0.1 -0.04,-0.09 -0.03,-0.09 -0.03,-0.09 -0.01,-0.09 v -0.09 c 0,-0.5 0.5,-1 1,-1 0.45,0 0.7,0.36 0.95,0.66 0.59,0.75 1.73,2.14 3.94,3.23 0.34,0.21 0.84,0.46 0.84,1.05 0,0.5 -0.34,0.75 -0.7,1 -1.1,0.75 -1.64,1.64 -2.05,2.83 -0.09,0.45 -0.3,1.11 -0.98,1.11 -0.71,0 -1,-0.66 -1,-1.05 0,-0.25 0.39,-1.84 1.18,-2.89 h -16.78 c -0.84,0 -1.75,0 -1.75,-1 0,-1 0.91,-1 1.75,-1 z"
         inkscape:connector-curvature="0"
         style="fill:#1b00ff;stroke-width:0;fill-opacity:1" />
      <path
         id="path1542"
         d="m 1635.0903,358.18692 0.23,0.36 0.23,0.33 0.22,0.31 0.22,0.29 0.22,0.28 0.22,0.25 0.22,0.24 0.22,0.22 0.21,0.2 0.21,0.19 0.21,0.17 0.2,0.16 0.21,0.14 0.2,0.13 0.21,0.12 0.19,0.11 0.2,0.09 0.2,0.09 0.19,0.07 0.2,0.07 0.19,0.06 0.19,0.05 0.18,0.04 0.19,0.03 0.18,0.03 0.19,0.03 0.36,0.04 0.35,0.02 0.35,0.02 c 0.6,0.05 0.64,0.89 0.64,0.96 0,0.39 -0.25,0.59 -0.64,0.59 -1.3,0 -2.75,-0.16 -4.09,-0.16 -1.64,0 -3.35,0.16 -4.94,0.16 -0.3,0 -0.94,0 -0.94,-0.95 0,-0.55 0.46,-0.6 0.8,-0.6 1.34,-0.09 2.3,-0.59 2.3,-1.64 0,-0.75 -0.75,-1.84 -0.75,-1.89 l -15.3,-24.31 -3.39,26.34 c 0,0.85 1.14,1.5 3.44,1.5 0.7,0 1.25,0 1.25,1 0,0.44 -0.41,0.55 -0.71,0.55 -1.98,0 -4.14,-0.16 -6.17,-0.16 -0.9,0 -1.84,0.05 -2.75,0.05 -0.89,0 -1.84,0.11 -2.69,0.11 -0.34,0 -0.93,0 -0.93,-0.95 0,-0.6 0.43,-0.6 1.23,-0.6 2.8,0 2.84,-0.45 3,-1.68 l 3.92,-30.75 c 0.16,-1 0.36,-1.14 1,-1.14 0.8,0 1,0.25 1.41,0.89 z"
         inkscape:connector-curvature="0"
         style="fill:#1b00ff;stroke-width:0;fill-opacity:1" />
      <path
         id="path1544"
         d="m 1644.5203,344.56692 v 0.04 0.04 0.05 0.04 0.03 0.04 0.04 0.03 l -0.01,0.04 v 0.03 0.03 0.03 0.03 l -0.01,0.03 v 0.03 l -0.01,0.02 v 0.03 0.02 l -0.01,0.03 v 0.02 l -0.02,0.04 -0.01,0.04 -0.02,0.03 -0.02,0.03 -0.02,0.03 -0.02,0.03 -0.03,0.02 -0.03,0.02 -0.04,0.02 -0.03,0.01 -0.04,0.01 -0.05,0.02 h -0.02 -0.03 l -0.02,0.01 h -0.03 l -0.02,0.01 h -0.03 -0.03 -0.03 -0.04 l -0.03,0.01 h -0.03 -0.04 -0.04 -0.03 -0.04 -0.04 -0.04 -0.05 -0.04 -0.05 c -2.23,-2.2 -5.39,-2.23 -6.82,-2.23 v -1.25 c 0.84,0 3.14,0 5.04,0.97 v -17.77 c 0,-1.16 0,-1.61 -3.48,-1.61 h -1.31 v -1.25 c 0.62,0.03 4.9,0.14 6.2,0.14 1.08,0 5.47,-0.11 6.23,-0.14 v 1.25 h -1.33 c -3.48,0 -3.48,0.45 -3.48,1.61 z"
         inkscape:connector-curvature="0"
         style="fill:#1b00ff;stroke-width:0;fill-opacity:1" />
    </g>
    <g
       style="font-style:normal;font-variant:normal;font-weight:normal;font-stretch:normal;letter-spacing:normal;word-spacing:normal;text-anchor:start;fill:#1b00ff;fill-opacity:1;fill-rule:evenodd;stroke:#000000;stroke-linecap:butt;stroke-linejoin:miter;stroke-miterlimit:10.43299961;stroke-dasharray:none;stroke-dashoffset:0;stroke-opacity:1"
       transform="matrix(0.17151731,0,0,-0.17151731,48.476804,155.57104)"
       id="g5450">
      <path
         id="path1546"
         d="m 537.47,448.44 -0.07,-0.06 -0.07,-0.07 -0.08,-0.07 -0.08,-0.07 -0.08,-0.08 -0.09,-0.08 -0.09,-0.09 -0.1,-0.08 -0.09,-0.09 -0.1,-0.09 -0.19,-0.19 -0.2,-0.2 -0.19,-0.2 -0.09,-0.11 -0.09,-0.1 -0.09,-0.1 -0.08,-0.1 -0.08,-0.11 -0.08,-0.1 -0.07,-0.1 -0.07,-0.1 -0.05,-0.1 -0.06,-0.1 -0.04,-0.1 -0.04,-0.09 -0.03,-0.09 -0.03,-0.09 -0.01,-0.09 v -0.09 c 0,-0.5 0.5,-1 1,-1 0.45,0 0.7,0.36 0.95,0.66 0.59,0.75 1.73,2.14 3.94,3.23 0.34,0.21 0.84,0.46 0.84,1.05 0,0.5 -0.34,0.75 -0.7,1 -1.1,0.75 -1.64,1.64 -2.05,2.83 -0.09,0.45 -0.3,1.11 -0.98,1.11 -0.71,0 -1,-0.66 -1,-1.05 0,-0.25 0.39,-1.84 1.18,-2.89 h -16.78 c -0.84,0 -1.75,0 -1.75,-1 0,-1 0.91,-1 1.75,-1 z"
         inkscape:connector-curvature="0"
         style="fill:#1b00ff;stroke-width:0;fill-opacity:1" />
      <path
         id="path1548"
         d="m 538.28,434.54 0.23,0.36 0.23,0.33 0.22,0.31 0.22,0.29 0.22,0.28 0.22,0.25 0.22,0.24 0.22,0.22 0.21,0.2 0.21,0.19 0.21,0.17 0.2,0.16 0.21,0.14 0.2,0.13 0.21,0.12 0.19,0.11 0.2,0.09 0.2,0.09 0.19,0.07 0.2,0.07 0.19,0.06 0.19,0.05 0.18,0.04 0.19,0.03 0.18,0.03 0.19,0.03 0.36,0.04 0.35,0.02 0.35,0.02 c 0.6,0.05 0.64,0.89 0.64,0.96 0,0.39 -0.25,0.59 -0.64,0.59 -1.29,0 -2.75,-0.16 -4.09,-0.16 -1.64,0 -3.35,0.16 -4.94,0.16 -0.3,0 -0.94,0 -0.94,-0.95 0,-0.55 0.46,-0.6 0.8,-0.6 1.34,-0.09 2.3,-0.59 2.3,-1.64 0,-0.75 -0.75,-1.84 -0.75,-1.89 l -15.3,-24.31 -3.39,26.34 c 0,0.85 1.14,1.5 3.44,1.5 0.7,0 1.25,0 1.25,1 0,0.44 -0.41,0.55 -0.71,0.55 -1.98,0 -4.14,-0.16 -6.17,-0.16 -0.9,0 -1.84,0.05 -2.75,0.05 -0.89,0 -1.84,0.11 -2.69,0.11 -0.34,0 -0.93,0 -0.93,-0.95 0,-0.6 0.43,-0.6 1.23,-0.6 2.8,0 2.85,-0.45 3,-1.68 l 3.92,-30.75 c 0.16,-1 0.36,-1.14 1,-1.14 0.8,0 1,0.25 1.41,0.89 z"
         inkscape:connector-curvature="0"
         style="fill:#1b00ff;stroke-width:0;fill-opacity:1" />
      <path
         id="path1550"
         d="m 553.63,405.11 h -1.18 c -0.1,-0.77 -0.46,-2.83 -0.91,-3.18 -0.27,-0.2 -2.95,-0.2 -3.44,-0.2 h -6.42 c 3.66,3.23 4.87,4.2 6.97,5.84 2.58,2.07 4.98,4.22 4.98,7.54 0,4.21 -3.68,6.79 -8.15,6.79 -4.32,0 -7.25,-3.03 -7.25,-6.23 0,-1.78 1.5,-1.96 1.86,-1.96 0.82,0 1.84,0.6 1.84,1.85 0,0.62 -0.25,1.84 -2.06,1.84 1.08,2.47 3.45,3.24 5.09,3.24 3.49,0 5.3,-2.71 5.3,-5.53 0,-3.04 -2.16,-5.44 -3.28,-6.69 l -8.39,-8.3 c -0.36,-0.31 -0.36,-0.39 -0.36,-1.36 h 14.36 z"
         inkscape:connector-curvature="0"
         style="fill:#1b00ff;stroke-width:0;fill-opacity:1" />
    </g>
    <g
       id="g5486"
       transform="matrix(0.57172437,0,0,0.57172437,23.600528,37.575207)"
       style="fill:#1b00ff;fill-opacity:1">
      <path
         id="path1552"
         d="m 120.28349,70.30476 0.069,-0.108 0.069,-0.099 0.066,-0.093 0.066,-0.087 0.066,-0.084 0.066,-0.075 0.066,-0.072 0.066,-0.066 0.063,-0.06 0.063,-0.057 0.063,-0.051 0.06,-0.048 0.063,-0.042 0.06,-0.039 0.063,-0.036 0.057,-0.033 0.06,-0.027 0.06,-0.027 0.057,-0.021 0.06,-0.021 0.057,-0.018 0.057,-0.015 0.054,-0.012 0.057,-0.009 0.054,-0.009 0.057,-0.009 0.108,-0.012 0.105,-0.006 0.105,-0.006 c 0.18,-0.015 0.192,-0.267 0.192,-0.288 0,-0.117 -0.075,-0.177 -0.192,-0.177 -0.39,0 -0.825,0.048 -1.227,0.048 -0.492,0 -1.005,-0.048 -1.482,-0.048 -0.09,0 -0.282,0 -0.282,0.285 0,0.165 0.138,0.18 0.24,0.18 0.402,0.027 0.69,0.177 0.69,0.492 0,0.225 -0.225,0.552 -0.225,0.567 l -4.59,7.293 -1.017,-7.902 c 0,-0.255 0.342,-0.45 1.032,-0.45 0.21,0 0.375,0 0.375,-0.3 0,-0.132 -0.123,-0.165 -0.213,-0.165 -0.594,0 -1.242,0.048 -1.851,0.048 -0.27,0 -0.552,-0.015 -0.825,-0.015 -0.267,0 -0.552,-0.033 -0.807,-0.033 -0.102,0 -0.279,0 -0.279,0.285 0,0.18 0.129,0.18 0.369,0.18 0.84,0 0.852,0.135 0.9,0.504 l 1.176,9.225 c 0.048,0.3 0.108,0.342 0.3,0.342 0.24,0 0.3,-0.075 0.423,-0.267 z"
         inkscape:connector-curvature="0"
         style="font-style:normal;font-variant:normal;font-weight:normal;font-stretch:normal;letter-spacing:normal;word-spacing:normal;text-anchor:start;fill:#1b00ff;fill-opacity:1;fill-rule:evenodd;stroke:#000000;stroke-width:0;stroke-linecap:butt;stroke-linejoin:miter;stroke-miterlimit:10.43299961;stroke-dasharray:none;stroke-dashoffset:0;stroke-opacity:1" />
      <path
         id="path1554"
         d="m 123.11249,74.39076 v -0.012 -0.012 -0.015 -0.012 -0.009 -0.012 -0.012 -0.009 l -0.003,-0.012 v -0.009 -0.009 -0.009 -0.009 l -0.003,-0.009 v -0.009 l -0.003,-0.006 v -0.009 -0.006 l -0.003,-0.009 v -0.006 l -0.006,-0.012 -0.003,-0.012 -0.006,-0.009 -0.006,-0.009 -0.006,-0.009 -0.006,-0.009 -0.009,-0.006 -0.009,-0.006 -0.012,-0.006 -0.009,-0.003 -0.012,-0.003 -0.015,-0.006 h -0.006 -0.009 l -0.006,-0.003 h -0.009 l -0.009,-0.003 h -0.006 -0.009 -0.009 -0.012 l -0.009,-0.003 h -0.009 -0.012 -0.012 -0.009 -0.012 -0.012 -0.012 -0.015 -0.012 -0.015 c -0.669,0.66 -1.617,0.669 -2.046,0.669 v 0.375 c 0.252,0 0.942,0 1.512,-0.291 v 5.331 c 0,0.348 0,0.483 -1.044,0.483 h -0.393 v 0.375 c 0.186,-0.009 1.47,-0.042 1.86,-0.042 0.324,0 1.641,0.033 1.869,0.042 v -0.375 h -0.399 c -1.044,0 -1.044,-0.135 -1.044,-0.483 z"
         inkscape:connector-curvature="0"
         style="font-style:normal;font-variant:normal;font-weight:normal;font-stretch:normal;letter-spacing:normal;word-spacing:normal;text-anchor:start;fill:#1b00ff;fill-opacity:1;fill-rule:evenodd;stroke:#000000;stroke-width:0;stroke-linecap:butt;stroke-linejoin:miter;stroke-miterlimit:10.43299961;stroke-dasharray:none;stroke-dashoffset:0;stroke-opacity:1" />
      <path
         id="path1556"
         d="m 126.82649,80.38176 -0.006,0.012 -0.003,0.015 -0.006,0.012 -0.003,0.015 -0.003,0.015 -0.006,0.018 -0.003,0.015 -0.006,0.015 -0.009,0.033 -0.009,0.033 -0.006,0.036 -0.009,0.03 -0.003,0.018 -0.003,0.015 -0.006,0.015 -0.003,0.015 -0.003,0.015 -0.003,0.012 -0.003,0.015 v 0.012 l -0.003,0.009 -0.003,0.012 v 0.009 l -0.003,0.009 v 0.006 l -0.003,0.006 v 0.003 0.003 0.003 0 c 0,0.231 0.189,0.333 0.357,0.333 0.186,0 0.351,-0.135 0.408,-0.228 0.051,-0.096 0.135,-0.429 0.186,-0.648 0.054,-0.198 0.165,-0.681 0.231,-0.942 0.06,-0.231 0.126,-0.459 0.177,-0.699 0.114,-0.432 0.138,-0.51 0.438,-0.942 0.294,-0.417 0.786,-0.96 1.569,-0.96 0.606,0 0.615,0.534 0.615,0.732 0,0.627 -0.447,1.785 -0.615,2.226 -0.117,0.294 -0.159,0.387 -0.159,0.567 0,0.552 0.465,0.894 0.993,0.894 1.047,0 1.506,-1.437 1.506,-1.599 0,-0.135 -0.138,-0.135 -0.165,-0.135 -0.15,0 -0.159,0.06 -0.201,0.177 -0.24,0.837 -0.69,1.266 -1.107,1.266 -0.219,0 -0.261,-0.144 -0.261,-0.366 0,-0.237 0.051,-0.375 0.237,-0.846 0.126,-0.324 0.558,-1.431 0.558,-2.016 0,-1.017 -0.807,-1.191 -1.359,-1.191 -0.867,0 -1.452,0.528 -1.767,0.948 -0.075,-0.72 -0.69,-0.948 -1.119,-0.948 -0.45,0 -0.69,0.324 -0.825,0.561 -0.231,0.387 -0.375,0.987 -0.375,1.038 0,0.135 0.144,0.135 0.177,0.135 0.144,0 0.156,-0.033 0.231,-0.315 0.153,-0.618 0.354,-1.128 0.762,-1.128 0.273,0 0.342,0.228 0.342,0.51 0,0.201 -0.093,0.585 -0.168,0.867 -0.069,0.285 -0.174,0.714 -0.231,0.942 z"
         inkscape:connector-curvature="0"
         style="font-style:normal;font-variant:normal;font-weight:normal;font-stretch:normal;letter-spacing:normal;word-spacing:normal;text-anchor:start;fill:#1b00ff;fill-opacity:1;fill-rule:evenodd;stroke:#000000;stroke-width:0;stroke-linecap:butt;stroke-linejoin:miter;stroke-miterlimit:10.43299961;stroke-dasharray:none;stroke-dashoffset:0;stroke-opacity:1" />
    </g>
    <g
       id="g5481"
       transform="matrix(0.57172437,0,0,0.57172437,24.884432,66.848336)"
       style="fill:#1b00ff;fill-opacity:1">
      <path
         id="path1558"
         d="m 143.10749,70.30476 0.069,-0.108 0.069,-0.099 0.066,-0.093 0.069,-0.087 0.066,-0.084 0.066,-0.075 0.063,-0.072 0.066,-0.066 0.063,-0.06 0.063,-0.057 0.063,-0.051 0.063,-0.048 0.06,-0.042 0.063,-0.039 0.06,-0.036 0.06,-0.033 0.057,-0.027 0.06,-0.027 0.06,-0.021 0.057,-0.021 0.057,-0.018 0.057,-0.015 0.057,-0.012 0.054,-0.009 0.057,-0.009 0.054,-0.009 0.108,-0.012 0.105,-0.006 0.105,-0.006 c 0.18,-0.015 0.192,-0.267 0.192,-0.288 0,-0.117 -0.075,-0.177 -0.192,-0.177 -0.387,0 -0.825,0.048 -1.227,0.048 -0.492,0 -1.002,-0.048 -1.482,-0.048 -0.09,0 -0.279,0 -0.279,0.285 0,0.165 0.135,0.18 0.237,0.18 0.402,0.027 0.69,0.177 0.69,0.492 0,0.225 -0.225,0.552 -0.225,0.567 l -4.59,7.293 -1.017,-7.902 c 0,-0.255 0.342,-0.45 1.032,-0.45 0.21,0 0.375,0 0.375,-0.3 0,-0.132 -0.123,-0.165 -0.213,-0.165 -0.594,0 -1.239,0.048 -1.851,0.048 -0.27,0 -0.552,-0.015 -0.825,-0.015 -0.267,0 -0.552,-0.033 -0.804,-0.033 -0.105,0 -0.282,0 -0.282,0.285 0,0.18 0.132,0.18 0.369,0.18 0.84,0 0.855,0.135 0.9,0.504 l 1.179,9.225 c 0.045,0.3 0.105,0.342 0.3,0.342 0.237,0 0.3,-0.075 0.42,-0.267 z"
         inkscape:connector-curvature="0"
         style="font-style:normal;font-variant:normal;font-weight:normal;font-stretch:normal;letter-spacing:normal;word-spacing:normal;text-anchor:start;fill:#1b00ff;fill-opacity:1;fill-rule:evenodd;stroke:#000000;stroke-width:0;stroke-linecap:butt;stroke-linejoin:miter;stroke-miterlimit:10.43299961;stroke-dasharray:none;stroke-dashoffset:0;stroke-opacity:1" />
      <path
         id="path1560"
         d="m 147.71249,79.13376 h -0.354 c -0.03,0.231 -0.138,0.849 -0.273,0.954 -0.078,0.06 -0.885,0.06 -1.032,0.06 h -1.926 c 1.098,-0.969 1.464,-1.26 2.091,-1.752 0.774,-0.621 1.494,-1.266 1.494,-2.262 0,-1.263 -1.104,-2.037 -2.445,-2.037 -1.296,0 -2.175,0.909 -2.175,1.869 0,0.534 0.45,0.588 0.558,0.588 0.246,0 0.552,-0.18 0.552,-0.555 0,-0.186 -0.075,-0.552 -0.618,-0.552 0.324,-0.741 1.035,-0.972 1.527,-0.972 1.047,0 1.59,0.813 1.59,1.659 0,0.912 -0.648,1.632 -0.984,2.007 l -2.517,2.49 c -0.108,0.093 -0.108,0.117 -0.108,0.408 h 4.308 z"
         inkscape:connector-curvature="0"
         style="font-style:normal;font-variant:normal;font-weight:normal;font-stretch:normal;letter-spacing:normal;word-spacing:normal;text-anchor:start;fill:#1b00ff;fill-opacity:1;fill-rule:evenodd;stroke:#000000;stroke-width:0;stroke-linecap:butt;stroke-linejoin:miter;stroke-miterlimit:10.43299961;stroke-dasharray:none;stroke-dashoffset:0;stroke-opacity:1" />
      <path
         id="path1562"
         d="m 149.65049,80.38176 -0.006,0.012 -0.003,0.015 -0.003,0.012 -0.006,0.015 -0.003,0.015 -0.006,0.018 -0.003,0.015 -0.006,0.015 -0.006,0.033 -0.009,0.033 -0.009,0.036 -0.009,0.03 -0.003,0.018 -0.003,0.015 -0.003,0.015 -0.003,0.015 -0.003,0.015 -0.003,0.012 -0.003,0.015 -0.003,0.012 -0.003,0.009 -0.003,0.012 v 0.009 l -0.003,0.009 v 0.006 0.006 0.003 l -0.003,0.003 v 0.003 0 c 0,0.231 0.189,0.333 0.357,0.333 0.189,0 0.351,-0.135 0.408,-0.228 0.051,-0.096 0.135,-0.429 0.186,-0.648 0.054,-0.198 0.165,-0.681 0.231,-0.942 0.06,-0.231 0.126,-0.459 0.18,-0.699 0.111,-0.432 0.135,-0.51 0.435,-0.942 0.294,-0.417 0.786,-0.96 1.569,-0.96 0.606,0 0.615,0.534 0.615,0.732 0,0.627 -0.444,1.785 -0.615,2.226 -0.117,0.294 -0.159,0.387 -0.159,0.567 0,0.552 0.465,0.894 0.993,0.894 1.047,0 1.506,-1.437 1.506,-1.599 0,-0.135 -0.135,-0.135 -0.165,-0.135 -0.15,0 -0.159,0.06 -0.201,0.177 -0.24,0.837 -0.69,1.266 -1.107,1.266 -0.219,0 -0.261,-0.144 -0.261,-0.366 0,-0.237 0.051,-0.375 0.24,-0.846 0.126,-0.324 0.555,-1.431 0.555,-2.016 0,-1.017 -0.804,-1.191 -1.359,-1.191 -0.867,0 -1.452,0.528 -1.767,0.948 -0.075,-0.72 -0.69,-0.948 -1.119,-0.948 -0.45,0 -0.69,0.324 -0.825,0.561 -0.231,0.387 -0.375,0.987 -0.375,1.038 0,0.135 0.144,0.135 0.177,0.135 0.147,0 0.156,-0.033 0.231,-0.315 0.153,-0.618 0.357,-1.128 0.762,-1.128 0.273,0 0.345,0.228 0.345,0.51 0,0.201 -0.096,0.585 -0.171,0.867 -0.069,0.285 -0.174,0.714 -0.228,0.942 z"
         inkscape:connector-curvature="0"
         style="font-style:normal;font-variant:normal;font-weight:normal;font-stretch:normal;letter-spacing:normal;word-spacing:normal;text-anchor:start;fill:#1b00ff;fill-opacity:1;fill-rule:evenodd;stroke:#000000;stroke-width:0;stroke-linecap:butt;stroke-linejoin:miter;stroke-miterlimit:10.43299961;stroke-dasharray:none;stroke-dashoffset:0;stroke-opacity:1" />
    </g>
    <g
       style="font-style:normal;font-variant:normal;font-weight:normal;font-stretch:normal;letter-spacing:normal;word-spacing:normal;text-anchor:start;fill:#1b00ff;fill-opacity:1;fill-rule:evenodd;stroke:#000000;stroke-linecap:butt;stroke-linejoin:miter;stroke-miterlimit:10.43299961;stroke-dasharray:none;stroke-dashoffset:0;stroke-opacity:1"
       id="g5455"
       transform="matrix(0.17151731,0,0,-0.17151731,-25.711539,133.04265)">
      <path
         id="path1564"
         d="m 741.68,434.54 0.23,0.36 0.23,0.33 0.22,0.31 0.22,0.29 0.22,0.28 0.22,0.25 0.22,0.24 0.21,0.22 0.22,0.2 0.21,0.19 0.21,0.17 0.2,0.16 0.21,0.14 0.2,0.13 0.2,0.12 0.2,0.11 0.2,0.09 0.2,0.09 0.19,0.07 0.2,0.07 0.19,0.06 0.19,0.05 0.18,0.04 0.19,0.03 0.18,0.03 0.19,0.03 0.36,0.04 0.35,0.02 0.35,0.02 c 0.59,0.05 0.64,0.89 0.64,0.96 0,0.39 -0.25,0.59 -0.64,0.59 -1.3,0 -2.75,-0.16 -4.09,-0.16 -1.64,0 -3.35,0.16 -4.94,0.16 -0.3,0 -0.94,0 -0.94,-0.95 0,-0.55 0.45,-0.6 0.8,-0.6 1.34,-0.09 2.3,-0.59 2.3,-1.64 0,-0.75 -0.75,-1.84 -0.75,-1.89 l -15.3,-24.31 -3.39,26.34 c 0,0.85 1.14,1.5 3.44,1.5 0.7,0 1.25,0 1.25,1 0,0.44 -0.41,0.55 -0.71,0.55 -1.98,0 -4.14,-0.16 -6.17,-0.16 -0.91,0 -1.84,0.05 -2.75,0.05 -0.89,0 -1.84,0.11 -2.69,0.11 -0.34,0 -0.93,0 -0.93,-0.95 0,-0.6 0.43,-0.6 1.23,-0.6 2.8,0 2.84,-0.45 3,-1.68 l 3.92,-30.75 c 0.16,-1 0.36,-1.14 1,-1.14 0.8,0 1,0.25 1.41,0.89 z"
         inkscape:connector-curvature="0"
         style="fill:#1b00ff;stroke-width:0;fill-opacity:1" />
      <path
         id="path1566"
         d="m 751.11,420.92 v 0.04 0.04 0.05 0.04 0.03 0.04 0.04 0.03 0.04 0.03 l -0.01,0.03 v 0.03 0.03 0.03 l -0.01,0.03 v 0.02 l -0.01,0.03 v 0.02 l -0.01,0.03 v 0.02 l -0.01,0.04 -0.02,0.04 -0.02,0.03 -0.01,0.03 -0.03,0.03 -0.02,0.03 -0.03,0.02 -0.03,0.02 -0.03,0.02 -0.04,0.01 -0.04,0.01 -0.04,0.02 h -0.03 -0.02 l -0.03,0.01 h -0.02 l -0.03,0.01 h -0.03 -0.03 -0.03 -0.03 l -0.04,0.01 h -0.03 -0.04 -0.03 -0.04 -0.04 -0.04 -0.04 -0.04 -0.05 -0.04 c -2.24,-2.2 -5.39,-2.23 -6.83,-2.23 v -1.25 c 0.84,0 3.14,0 5.04,0.97 v -17.77 c 0,-1.16 0,-1.61 -3.48,-1.61 h -1.31 v -1.25 c 0.62,0.03 4.91,0.14 6.2,0.14 1.08,0 5.47,-0.11 6.24,-0.14 v 1.25 h -1.33 c -3.49,0 -3.49,0.45 -3.49,1.61 z"
         inkscape:connector-curvature="0"
         style="fill:#1b00ff;stroke-width:0;fill-opacity:1" />
      <path
         id="path1568"
         d="m 774.25,411.86 -0.08,-0.03 -0.08,-0.02 -0.08,-0.03 -0.08,-0.02 -0.07,-0.04 -0.08,-0.03 -0.07,-0.04 -0.07,-0.04 -0.06,-0.04 -0.07,-0.04 -0.06,-0.05 -0.06,-0.05 -0.06,-0.05 -0.05,-0.05 -0.05,-0.05 -0.05,-0.06 -0.05,-0.05 -0.04,-0.06 -0.04,-0.06 -0.04,-0.06 -0.03,-0.06 -0.04,-0.06 -0.03,-0.06 -0.02,-0.06 -0.03,-0.07 -0.02,-0.06 -0.01,-0.07 -0.02,-0.06 -0.01,-0.07 -0.01,-0.06 v -0.07 l -0.01,-0.06 c 0,-0.81 0.71,-1.12 1.16,-1.12 0.34,0 1.67,0.21 1.67,1.98 0,2.27 -2.5,3.03 -4.62,3.03 -5.44,0 -6.42,-4 -6.42,-5.08 0,-1.29 0.73,-2.12 1.21,-2.54 0.91,-0.71 1.54,-0.83 3.94,-1.25 0.74,-0.14 2.97,-0.57 2.97,-2.3 0,-0.59 -0.39,-1.92 -1.84,-2.8 -1.36,-0.76 -3.08,-0.76 -3.49,-0.76 -1.4,0 -3.39,0.31 -4.18,1.47 1.15,0.14 1.92,1 1.92,1.98 0,0.87 -0.63,1.28 -1.36,1.28 -1.02,0 -2.03,-0.8 -2.03,-2.33 0,-2.09 2.23,-3.37 5.61,-3.37 6.42,0 7.61,4.39 7.61,5.75 0,3.2 -3.53,3.83 -4.82,4.08 -0.31,0.06 -1.18,0.2 -1.39,0.26 -1.29,0.25 -1.92,0.99 -1.92,1.75 0,0.8 0.63,1.74 1.39,2.24 0.94,0.59 2.16,0.65 2.75,0.65 0.74,0 2.55,-0.11 3.31,-1.29 z"
         inkscape:connector-curvature="0"
         style="fill:#1b00ff;stroke-width:0;fill-opacity:1" />
    </g>
    <g
       id="g5538"
       transform="translate(154.83945,72.926042)"
       style="fill:#1b00ff;fill-opacity:1">
      <path
         id="path1570"
         d="m -6.8907503,23.589184 0.039449,-0.06175 0.039449,-0.0566 0.037734,-0.05317 0.039449,-0.04974 0.037734,-0.04802 0.037734,-0.04288 0.036019,-0.04116 0.037734,-0.03773 0.036019,-0.0343 0.036019,-0.03259 0.036019,-0.02916 0.036019,-0.02744 0.034303,-0.02401 0.036019,-0.0223 0.034304,-0.02058 0.034303,-0.01887 0.032588,-0.01544 0.034304,-0.01544 0.034303,-0.01201 0.032588,-0.01201 0.032588,-0.01029 0.032588,-0.0086 0.032588,-0.0069 0.030873,-0.0051 0.032588,-0.0051 0.030873,-0.0051 0.061746,-0.0069 0.060031,-0.0034 0.060031,-0.0034 c 0.1029103,-0.0086 0.109771,-0.15265 0.109771,-0.164657 0,-0.06689 -0.042879,-0.101195 -0.109771,-0.101195 -0.2212574,0 -0.4716726,0.02744 -0.7015058,0.02744 -0.2812884,0 -0.5728679,-0.02744 -0.8472956,-0.02744 -0.04974,0 -0.1612262,0 -0.1612262,0.162942 0,0.09433 0.078898,0.10291 0.1372138,0.10291 0.2315484,0.01544 0.3944898,0.101195 0.3944898,0.281288 0,0.128638 -0.128638,0.315592 -0.128638,0.324168 l -2.6242148,4.169586 -0.5814439,-4.517766 c 0,-0.14579 0.19553,-0.257276 0.5900198,-0.257276 0.1200621,0 0.2143966,0 0.2143966,-0.171517 0,-0.07547 -0.070322,-0.09434 -0.1200621,-0.09434 -0.3413195,0 -0.7117973,0.02744 -1.0599773,0.02744 -0.154366,0 -0.315592,-0.0086 -0.471673,-0.0086 -0.15265,0 -0.315591,-0.01887 -0.459666,-0.01887 -0.06003,0 -0.161226,0 -0.161226,0.162942 0,0.10291 0.07547,0.10291 0.210966,0.10291 0.480248,0 0.488824,0.07718 0.514552,0.288149 l 0.672348,5.274157 c 0.02744,0.171518 0.06175,0.19553 0.171517,0.19553 0.137214,0 0.171517,-0.04288 0.2418398,-0.15265 z"
         inkscape:connector-curvature="0"
         style="font-style:normal;font-variant:normal;font-weight:normal;font-stretch:normal;letter-spacing:normal;word-spacing:normal;text-anchor:start;fill:#1b00ff;fill-opacity:1;fill-rule:evenodd;stroke:#000000;stroke-width:0;stroke-linecap:butt;stroke-linejoin:miter;stroke-miterlimit:10.43299961;stroke-dasharray:none;stroke-dashoffset:0;stroke-opacity:1" />
      <path
         id="path1572"
         d="M -4.2579595,28.636938 H -4.46035 c -0.017152,0.132068 -0.078898,0.485394 -0.1560807,0.545425 -0.044594,0.0343 -0.5059761,0.0343 -0.5900196,0.0343 h -1.1011411 c 0.6277534,-0.554001 0.8370045,-0.720373 1.1954757,-1.001662 0.4425146,-0.35504 0.8541562,-0.723803 0.8541562,-1.29324 0,-0.722088 -0.6311837,-1.164603 -1.3978661,-1.164603 -0.7392396,0 -1.2435005,0.519698 -1.2435005,1.068553 0,0.305301 0.2572759,0.336174 0.3190222,0.336174 0.1423593,0 0.3155918,-0.10291 0.3155918,-0.317307 0,-0.106341 -0.042879,-0.315592 -0.3533256,-0.315592 0.1852387,-0.423647 0.5917347,-0.555716 0.8730231,-0.555716 0.5985954,0 0.9090417,0.464812 0.9090417,0.948491 0,0.521413 -0.3704774,0.933054 -0.5625768,1.147451 l -1.4390302,1.423593 c -0.061746,0.05317 -0.061746,0.06689 -0.061746,0.233264 h 2.4629886 z"
         inkscape:connector-curvature="0"
         style="font-style:normal;font-variant:normal;font-weight:normal;font-stretch:normal;letter-spacing:normal;word-spacing:normal;text-anchor:start;fill:#1b00ff;fill-opacity:1;fill-rule:evenodd;stroke:#000000;stroke-width:0;stroke-linecap:butt;stroke-linejoin:miter;stroke-miterlimit:10.43299961;stroke-dasharray:none;stroke-dashoffset:0;stroke-opacity:1" />
      <path
         id="path1574"
         d="m -1.3044314,27.479196 -0.013721,0.0051 -0.013721,0.0034 -0.013721,0.0051 -0.013721,0.0034 -0.013721,0.0069 -0.012006,0.0051 -0.012006,0.0069 -0.012006,0.0069 -0.012006,0.0069 -0.010291,0.0069 -0.010291,0.0086 -0.010291,0.0086 -0.010291,0.0086 -0.00858,0.0086 -0.00858,0.0086 -0.00858,0.01029 -0.00858,0.0086 -0.00686,0.01029 -0.00686,0.01029 -0.00686,0.01029 -0.00686,0.01029 -0.00515,0.01029 -0.00515,0.01029 -0.00343,0.01029 -0.00515,0.01201 -0.00343,0.01029 -0.00343,0.01201 -0.00172,0.01029 -0.00172,0.01201 -0.00172,0.01029 v 0.01201 l -0.00172,0.01029 c 0,0.138929 0.1217773,0.1921 0.1989601,0.1921 0.058316,0 0.2864339,-0.03602 0.2864339,-0.339604 0,-0.389345 -0.4287933,-0.519698 -0.79241,-0.519698 -0.9330541,0 -1.1011411,0.686069 -1.1011411,0.871308 0,0.221257 0.1252076,0.363617 0.2075359,0.435654 0.1560808,0.121777 0.2641367,0.142359 0.6757782,0.214397 0.1269228,0.02401 0.5094065,0.09776 0.5094065,0.394489 0,0.101196 -0.066892,0.329314 -0.3155919,0.480249 -0.2332635,0.130353 -0.5282733,0.130353 -0.5985954,0.130353 -0.2401243,0 -0.5814437,-0.05317 -0.7169424,-0.25213 0.1972449,-0.02401 0.3293133,-0.171518 0.3293133,-0.339605 0,-0.14922 -0.1080559,-0.219542 -0.2332636,-0.219542 -0.1749476,0 -0.3481801,0.137214 -0.3481801,0.399636 0,0.358471 0.3824836,0.578013 0.9622121,0.578013 1.1011411,0 1.3052467,-0.752961 1.3052467,-0.986225 0,-0.548855 -0.6071713,-0.656911 -0.8267134,-0.69979 -0.05317,-0.01029 -0.2023904,-0.0343 -0.2384091,-0.0446 -0.2212573,-0.04288 -0.3293132,-0.169802 -0.3293132,-0.300155 0,-0.137214 0.1080559,-0.29844 0.2384091,-0.384199 0.1612262,-0.101195 0.3704773,-0.111486 0.4716726,-0.111486 0.1269228,0 0.4373691,0.01887 0.5677223,0.221257 z"
         inkscape:connector-curvature="0"
         style="font-style:normal;font-variant:normal;font-weight:normal;font-stretch:normal;letter-spacing:normal;word-spacing:normal;text-anchor:start;fill:#1b00ff;fill-opacity:1;fill-rule:evenodd;stroke:#000000;stroke-width:0;stroke-linecap:butt;stroke-linejoin:miter;stroke-miterlimit:10.43299961;stroke-dasharray:none;stroke-dashoffset:0;stroke-opacity:1" />
    </g>
    <g
       id="g5924"
       transform="matrix(1.5052952,0,0,1.5052952,41.700619,-74.755814)"
       style="stroke:#ff000a;stroke-opacity:1;stroke-width:0;stroke-miterlimit:4;stroke-dasharray:none;fill:#ff0000;fill-opacity:1">
      <g
         word-spacing="normal"
         letter-spacing="normal"
         font-size-adjust="none"
         font-stretch="normal"
         font-weight="normal"
         font-variant="normal"
         font-style="normal"
         stroke-miterlimit="10.433"
         xml:space="preserve"
         transform="matrix(0.3,0,0,-0.3,-52.5,222.75)"
         id="content"
         style="font-style:normal;font-variant:normal;font-weight:normal;font-stretch:normal;letter-spacing:normal;word-spacing:normal;text-anchor:start;fill:#ff0000;fill-opacity:1;fill-rule:evenodd;stroke:#ff000a;stroke-linecap:butt;stroke-linejoin:miter;stroke-miterlimit:4;stroke-dasharray:none;stroke-dashoffset:0;stroke-opacity:1;stroke-width:0"><path
           id="path5921"
           d="m 479.29,417.96 -0.01,0.37 -0.01,0.35 -0.02,0.35 -0.02,0.34 -0.06,0.65 -0.09,0.63 -0.11,0.59 -0.14,0.57 -0.15,0.54 -0.18,0.51 -0.19,0.49 -0.21,0.45 -0.23,0.44 -0.25,0.4 -0.26,0.38 -0.27,0.36 -0.29,0.33 -0.3,0.31 -0.31,0.29 -0.31,0.26 -0.33,0.24 -0.34,0.22 -0.34,0.2 -0.35,0.18 -0.35,0.16 -0.36,0.14 -0.35,0.12 -0.36,0.11 -0.37,0.09 -0.36,0.06 -0.36,0.06 -0.35,0.04 -0.35,0.02 h -0.35 l -0.05,-1.09 c 4.94,0 4.94,-6.53 4.94,-10.41 0,-1.84 0,-4.73 0.09,-5.57 v 0 c -4.37,-3.85 -8.22,-4.39 -10.2,-4.39 -3,0 -4.49,2.25 -4.49,5.43 0,2.44 1.3,7.82 2.89,10.36 2.33,3.64 5.04,4.58 6.77,4.58 l 0.05,1.09 c -6.82,0 -13.39,-7.12 -13.39,-14.14 0,-4.64 2.98,-8.42 8.06,-8.42 3.14,0 6.73,1.14 10.51,4.19 0.66,-2.64 2.3,-4.19 4.54,-4.19 2.64,0 4.18,2.74 4.18,3.53 0,0.36 -0.29,0.5 -0.59,0.5 -0.36,0 -0.5,-0.14 -0.66,-0.5 -0.89,-2.43 -2.68,-2.43 -2.78,-2.43 -1.54,0 -1.54,3.89 -1.54,5.07 0,1.05 0,1.16 0.5,1.75 4.68,5.88 5.73,11.66 5.73,11.71 0,0.11 -0.06,0.5 -0.61,0.5 -0.5,0 -0.5,-0.14 -0.75,-1.05 -0.89,-3.14 -2.53,-6.92 -4.87,-9.86 z"
           inkscape:connector-curvature="0"
           style="fill:#ff0000;stroke-width:0;stroke:#ff000a;stroke-opacity:1;stroke-miterlimit:4;stroke-dasharray:none;fill-opacity:1" /></g>    </g>
    <g
       id="g6651"
       transform="matrix(0.10038145,0,0,-0.10038145,32.350463,111.14007)"
       style="font-style:normal;font-variant:normal;font-weight:normal;font-stretch:normal;letter-spacing:normal;word-spacing:normal;text-anchor:start;fill:#ff0000;fill-opacity:1;fill-rule:evenodd;stroke:#000000;stroke-width:2.98860002;stroke-linecap:butt;stroke-linejoin:miter;stroke-miterlimit:10.43299961;stroke-dasharray:none;stroke-dashoffset:0;stroke-opacity:1">
      <polygon
         style="fill:#ff0000;stroke-width:0;fill-opacity:1"
         points="461.39,443.56 461.39,393.75 468.22,393.75 468.22,395.73 463.39,395.73 463.39,441.57 468.22,441.57 468.22,443.56 "
         id="polygon6454" />
      <path
         style="fill:#ff0000;stroke-width:0;fill-opacity:1"
         inkscape:connector-curvature="0"
         d="m 485.96,421.25 0.03,0.13 0.03,0.15 0.04,0.16 0.05,0.18 0.05,0.19 0.06,0.21 0.07,0.22 0.07,0.22 0.08,0.23 0.09,0.24 0.09,0.25 0.11,0.24 0.11,0.25 0.12,0.25 0.13,0.25 0.13,0.25 0.15,0.24 0.16,0.24 0.17,0.23 0.17,0.22 0.19,0.22 0.2,0.2 0.21,0.19 0.22,0.18 0.23,0.16 0.25,0.14 0.12,0.07 0.13,0.06 0.13,0.05 0.14,0.05 0.14,0.05 0.14,0.04 0.15,0.03 0.15,0.03 0.15,0.02 0.15,0.02 0.16,0.01 h 0.16 c 0.25,0 1.44,0 2.49,-0.64 -1.39,-0.25 -2.39,-1.5 -2.39,-2.69 0,-0.79 0.55,-1.75 1.89,-1.75 1.09,0 2.69,0.89 2.69,2.89 0,2.6 -2.94,3.28 -4.63,3.28 -2.89,0 -4.64,-2.64 -5.23,-3.78 -1.25,3.28 -3.94,3.78 -5.38,3.78 -5.19,0 -8.03,-6.42 -8.03,-7.67 0,-0.5 0.5,-0.5 0.61,-0.5 0.39,0 0.55,0.11 0.64,0.55 1.69,5.28 4.99,6.53 6.67,6.53 0.96,0 2.69,-0.44 2.69,-3.33 0,-1.54 -0.84,-4.89 -2.69,-11.86 -0.79,-3.09 -2.53,-5.18 -4.73,-5.18 -0.3,0 -1.44,0 -2.49,0.65 1.25,0.24 2.35,1.28 2.35,2.69 0,1.34 -1.1,1.73 -1.85,1.73 -1.5,0 -2.75,-1.29 -2.75,-2.89 0,-2.28 2.5,-3.28 4.69,-3.28 3.3,0 5.08,3.49 5.24,3.78 0.59,-1.84 2.39,-3.78 5.37,-3.78 5.14,0 7.99,6.42 7.99,7.67 0,0.5 -0.46,0.5 -0.61,0.5 -0.44,0 -0.55,-0.2 -0.64,-0.54 -1.65,-5.33 -5.04,-6.53 -6.63,-6.53 -1.95,0 -2.75,1.59 -2.75,3.29 0,1.1 0.3,2.19 0.86,4.38 z"
         id="path6456" />
      <path
         style="fill:#ff0000;stroke-width:0;fill-opacity:1"
         inkscape:connector-curvature="0"
         d="m 509.43,420.92 v 0.04 0.04 0.05 0.04 0.03 0.04 0.04 0.03 0.04 0.03 l -0.01,0.03 v 0.03 0.03 0.03 l -0.01,0.03 v 0.02 l -0.01,0.03 v 0.02 l -0.01,0.03 v 0.02 l -0.01,0.04 -0.02,0.04 -0.01,0.03 -0.02,0.03 -0.03,0.03 -0.02,0.03 -0.03,0.02 -0.03,0.02 -0.03,0.02 -0.04,0.01 -0.04,0.01 -0.04,0.02 h -0.03 -0.02 l -0.03,0.01 h -0.02 l -0.03,0.01 h -0.03 -0.03 -0.03 -0.03 l -0.04,0.01 h -0.03 -0.04 -0.03 -0.04 -0.04 -0.04 -0.04 -0.04 -0.05 -0.04 c -2.24,-2.2 -5.39,-2.23 -6.83,-2.23 v -1.25 c 0.84,0 3.14,0 5.05,0.97 v -17.77 c 0,-1.16 0,-1.61 -3.49,-1.61 h -1.31 v -1.25 c 0.62,0.03 4.9,0.14 6.2,0.14 1.08,0 5.47,-0.11 6.24,-0.14 v 1.25 h -1.33 c -3.49,0 -3.49,0.45 -3.49,1.61 z"
         id="path6458" />
      <path
         style="fill:#ff0000;stroke-width:0;fill-opacity:1"
         inkscape:connector-curvature="0"
         d="m 530.31,406.25 v 0.3 l -0.02,0.3 -0.01,0.29 -0.03,0.28 -0.03,0.27 -0.04,0.26 -0.04,0.26 -0.05,0.24 -0.06,0.24 -0.07,0.23 -0.07,0.22 -0.07,0.21 -0.09,0.2 -0.09,0.19 -0.09,0.19 -0.1,0.17 -0.11,0.16 -0.11,0.16 -0.12,0.14 -0.12,0.13 -0.13,0.13 -0.13,0.11 -0.14,0.1 -0.15,0.1 -0.15,0.08 -0.15,0.07 -0.16,0.06 -0.16,0.05 -0.17,0.04 -0.17,0.03 -0.18,0.01 -0.18,0.01 c -1.64,0 -2.64,-1.25 -2.64,-2.64 0,-1.34 1,-2.64 2.64,-2.64 0.6,0 1.25,0.2 1.75,0.64 0.14,0.11 0.2,0.16 0.25,0.16 0.05,0 0.1,-0.05 0.1,-0.75 0,-3.69 -1.74,-6.68 -3.4,-8.32 -0.54,-0.54 -0.54,-0.65 -0.54,-0.79 0,-0.36 0.25,-0.55 0.5,-0.55 0.54,0 4.53,3.83 4.53,9.66 z"
         id="path6460" />
      <path
         style="fill:#ff0000;stroke-width:0;fill-opacity:1"
         inkscape:connector-curvature="0"
         d="m 566.5,425.18 v 0.04 l 0.01,0.03 0.02,0.06 0.01,0.05 0.02,0.06 0.01,0.05 0.01,0.04 0.01,0.05 0.01,0.04 0.01,0.04 0.01,0.04 0.01,0.04 0.01,0.04 v 0.03 l 0.01,0.03 0.01,0.03 v 0.03 0.03 l 0.01,0.03 v 0.05 l 0.01,0.06 v 0.05 0.05 0.05 0.03 0.03 0.03 0.03 c 0,0.91 -0.68,1.35 -1.43,1.35 -0.5,0 -1.3,-0.3 -1.75,-1.05 -0.1,-0.25 -0.5,-1.78 -0.69,-2.69 -0.36,-1.29 -0.71,-2.64 -1,-3.98 l -2.25,-8.97 c -0.19,-0.75 -2.33,-4.23 -5.63,-4.23 -2.53,0 -3.09,2.18 -3.09,4.03 0,2.29 0.86,5.39 2.55,9.76 0.79,2.05 1,2.6 1,3.6 0,2.23 -1.6,4.07 -4.1,4.07 -4.73,0 -6.57,-7.21 -6.57,-7.67 0,-0.5 0.5,-0.5 0.6,-0.5 0.5,0 0.55,0.11 0.8,0.91 1.35,4.69 3.33,6.17 5.03,6.17 0.39,0 1.25,0 1.25,-1.59 0,-1.25 -0.5,-2.53 -0.86,-3.49 -1.98,-5.28 -2.89,-8.12 -2.89,-10.47 0,-4.42 3.14,-5.92 6.08,-5.92 1.95,0 3.64,0.85 5.03,2.24 -0.64,-2.58 -1.23,-5.03 -3.23,-7.68 -1.3,-1.68 -3.19,-3.14 -5.49,-3.14 -0.69,0 -2.94,0.16 -3.78,2.1 0.8,0 1.46,0 2.14,0.61 0.5,0.43 1,1.09 1,2.03 0,1.55 -1.34,1.75 -1.84,1.75 -1.14,0 -2.8,-0.8 -2.8,-3.24 0,-2.5 2.21,-4.34 5.28,-4.34 5.14,0 10.27,4.55 11.68,10.17 z"
         id="path6462" />
      <path
         style="fill:#ff0000;stroke-width:0;fill-opacity:1"
         inkscape:connector-curvature="0"
         d="m 578.43,420.92 v 0.04 0.04 0.05 0.04 0.03 0.04 0.04 0.03 0.04 0.03 l -0.01,0.03 v 0.03 0.03 0.03 l -0.01,0.03 v 0.02 l -0.01,0.03 v 0.02 l -0.01,0.03 v 0.02 l -0.01,0.04 -0.02,0.04 -0.01,0.03 -0.02,0.03 -0.03,0.03 -0.02,0.03 -0.03,0.02 -0.03,0.02 -0.03,0.02 -0.04,0.01 -0.04,0.01 -0.04,0.02 h -0.03 -0.02 l -0.03,0.01 h -0.02 l -0.03,0.01 h -0.03 -0.03 -0.03 -0.03 l -0.04,0.01 h -0.03 -0.04 -0.03 -0.04 -0.04 -0.04 -0.04 -0.04 -0.05 -0.04 c -2.24,-2.2 -5.39,-2.23 -6.83,-2.23 v -1.25 c 0.84,0 3.14,0 5.04,0.97 v -17.77 c 0,-1.16 0,-1.61 -3.48,-1.61 h -1.31 v -1.25 c 0.62,0.03 4.91,0.14 6.2,0.14 1.08,0 5.47,-0.11 6.24,-0.14 v 1.25 h -1.33 c -3.49,0 -3.49,0.45 -3.49,1.61 z"
         id="path6464" />
      <polygon
         style="fill:#ff0000;stroke-width:0;fill-opacity:1"
         points="590.17,393.75 597,393.75 597,443.56 590.17,443.56 590.17,441.57 595,441.57 595,395.73 590.17,395.73 "
         id="polygon6466" />
    </g>
    <g
       id="g6642"
       transform="matrix(0.10038145,0,0,-0.10038145,59.459064,153.1577)"
       style="font-style:normal;font-variant:normal;font-weight:normal;font-stretch:normal;letter-spacing:normal;word-spacing:normal;text-anchor:start;fill:#ff0000;fill-opacity:1;fill-rule:evenodd;stroke:#000000;stroke-width:2.98860002;stroke-linecap:butt;stroke-linejoin:miter;stroke-miterlimit:10.43299961;stroke-dasharray:none;stroke-dashoffset:0;stroke-opacity:1">
      <polygon
         style="fill:#ff0000;stroke-width:0;fill-opacity:1"
         points="610.75,395.73 610.75,441.57 615.58,441.57 615.58,443.56 608.75,443.56 608.75,393.75 615.58,393.75 615.58,395.73 "
         id="polygon6468" />
      <path
         style="fill:#ff0000;stroke-width:0;fill-opacity:1"
         inkscape:connector-curvature="0"
         d="m 633.31,421.25 0.03,0.13 0.04,0.15 0.04,0.16 0.05,0.18 0.05,0.19 0.06,0.21 0.06,0.22 0.08,0.22 0.08,0.23 0.08,0.24 0.1,0.25 0.1,0.24 0.11,0.25 0.12,0.25 0.13,0.25 0.14,0.25 0.15,0.24 0.15,0.24 0.17,0.23 0.18,0.22 0.19,0.22 0.19,0.2 0.21,0.19 0.22,0.18 0.24,0.16 0.24,0.14 0.13,0.07 0.13,0.06 0.13,0.05 0.14,0.05 0.13,0.05 0.15,0.04 0.14,0.03 0.15,0.03 0.15,0.02 0.16,0.02 0.16,0.01 h 0.16 c 0.25,0 1.44,0 2.48,-0.64 -1.39,-0.25 -2.39,-1.5 -2.39,-2.69 0,-0.79 0.55,-1.75 1.89,-1.75 1.1,0 2.69,0.89 2.69,2.89 0,2.6 -2.94,3.28 -4.62,3.28 -2.89,0 -4.64,-2.64 -5.24,-3.78 -1.25,3.28 -3.93,3.78 -5.37,3.78 -5.19,0 -8.03,-6.42 -8.03,-7.67 0,-0.5 0.5,-0.5 0.61,-0.5 0.39,0 0.54,0.11 0.64,0.55 1.68,5.28 4.98,6.53 6.67,6.53 0.95,0 2.69,-0.44 2.69,-3.33 0,-1.54 -0.85,-4.89 -2.69,-11.86 -0.8,-3.09 -2.53,-5.18 -4.74,-5.18 -0.29,0 -1.43,0 -2.48,0.65 1.25,0.24 2.34,1.28 2.34,2.69 0,1.34 -1.09,1.73 -1.84,1.73 -1.5,0 -2.75,-1.29 -2.75,-2.89 0,-2.28 2.5,-3.28 4.69,-3.28 3.29,0 5.08,3.49 5.23,3.78 0.6,-1.84 2.39,-3.78 5.38,-3.78 5.14,0 7.98,6.42 7.98,7.67 0,0.5 -0.45,0.5 -0.61,0.5 -0.44,0 -0.55,-0.2 -0.64,-0.54 -1.64,-5.33 -5.03,-6.53 -6.62,-6.53 -1.96,0 -2.75,1.59 -2.75,3.29 0,1.1 0.29,2.19 0.86,4.38 z"
         id="path6470" />
      <path
         style="fill:#ff0000;stroke-width:0;fill-opacity:1"
         inkscape:connector-curvature="0"
         d="m 662.72,405.11 h -1.19 c -0.1,-0.77 -0.46,-2.83 -0.91,-3.18 -0.27,-0.2 -2.95,-0.2 -3.44,-0.2 h -6.42 c 3.66,3.23 4.88,4.2 6.97,5.84 2.58,2.07 4.99,4.22 4.99,7.54 0,4.21 -3.69,6.79 -8.16,6.79 -4.31,0 -7.25,-3.03 -7.25,-6.23 0,-1.78 1.5,-1.96 1.86,-1.96 0.83,0 1.84,0.6 1.84,1.85 0,0.62 -0.25,1.84 -2.06,1.84 1.08,2.47 3.45,3.24 5.09,3.24 3.49,0 5.3,-2.71 5.3,-5.53 0,-3.04 -2.16,-5.44 -3.28,-6.69 l -8.39,-8.3 c -0.36,-0.31 -0.36,-0.39 -0.36,-1.36 h 14.36 z"
         id="path6472" />
      <path
         style="fill:#ff0000;stroke-width:0;fill-opacity:1"
         inkscape:connector-curvature="0"
         d="m 677.67,406.25 -0.01,0.3 -0.01,0.3 -0.01,0.29 -0.03,0.28 -0.03,0.27 -0.04,0.26 -0.04,0.26 -0.06,0.24 -0.05,0.24 -0.07,0.23 -0.07,0.22 -0.08,0.21 -0.08,0.2 -0.09,0.19 -0.09,0.19 -0.1,0.17 -0.11,0.16 -0.11,0.16 -0.12,0.14 -0.12,0.13 -0.13,0.13 -0.13,0.11 -0.14,0.1 -0.15,0.1 -0.15,0.08 -0.15,0.07 -0.16,0.06 -0.16,0.05 -0.17,0.04 -0.17,0.03 -0.18,0.01 -0.18,0.01 c -1.64,0 -2.64,-1.25 -2.64,-2.64 0,-1.34 1,-2.64 2.64,-2.64 0.59,0 1.25,0.2 1.75,0.64 0.14,0.11 0.2,0.16 0.25,0.16 0.05,0 0.09,-0.05 0.09,-0.75 0,-3.69 -1.73,-6.68 -3.39,-8.32 -0.54,-0.54 -0.54,-0.65 -0.54,-0.79 0,-0.36 0.25,-0.55 0.5,-0.55 0.54,0 4.53,3.83 4.53,9.66 z"
         id="path6474" />
      <path
         style="fill:#ff0000;stroke-width:0;fill-opacity:1"
         inkscape:connector-curvature="0"
         d="m 713.85,425.18 0.01,0.04 0.01,0.03 0.02,0.06 0.01,0.05 0.02,0.06 0.01,0.05 0.01,0.04 0.01,0.05 0.01,0.04 0.01,0.04 0.01,0.04 0.01,0.04 0.01,0.04 v 0.03 l 0.01,0.03 v 0.03 l 0.01,0.03 v 0.03 l 0.01,0.03 v 0.05 l 0.01,0.06 v 0.05 0.05 0.05 0.03 0.03 0.03 0.03 c 0,0.91 -0.69,1.35 -1.44,1.35 -0.5,0 -1.29,-0.3 -1.75,-1.05 -0.09,-0.25 -0.5,-1.78 -0.68,-2.69 -0.36,-1.29 -0.7,-2.64 -1,-3.98 l -2.25,-8.97 c -0.19,-0.75 -2.33,-4.23 -5.63,-4.23 -2.53,0 -3.09,2.18 -3.09,4.03 0,2.29 0.86,5.39 2.55,9.76 0.79,2.05 1,2.6 1,3.6 0,2.23 -1.6,4.07 -4.1,4.07 -4.73,0 -6.58,-7.21 -6.58,-7.67 0,-0.5 0.5,-0.5 0.61,-0.5 0.5,0 0.55,0.11 0.8,0.91 1.34,4.69 3.33,6.17 5.03,6.17 0.39,0 1.25,0 1.25,-1.59 0,-1.25 -0.5,-2.53 -0.86,-3.49 -1.98,-5.28 -2.89,-8.12 -2.89,-10.47 0,-4.42 3.14,-5.92 6.08,-5.92 1.95,0 3.64,0.85 5.03,2.24 -0.64,-2.58 -1.23,-5.03 -3.23,-7.68 -1.3,-1.68 -3.19,-3.14 -5.49,-3.14 -0.68,0 -2.93,0.16 -3.78,2.1 0.8,0 1.45,0 2.14,0.61 0.5,0.43 1,1.09 1,2.03 0,1.55 -1.34,1.75 -1.84,1.75 -1.14,0 -2.8,-0.8 -2.8,-3.24 0,-2.5 2.2,-4.34 5.28,-4.34 5.14,0 10.27,4.55 11.67,10.17 z"
         id="path6476" />
      <path
         style="fill:#ff0000;stroke-width:0;fill-opacity:1"
         inkscape:connector-curvature="0"
         d="m 731.72,405.11 h -1.19 c -0.1,-0.77 -0.46,-2.83 -0.91,-3.18 -0.27,-0.2 -2.95,-0.2 -3.44,-0.2 h -6.42 c 3.66,3.23 4.88,4.2 6.97,5.84 2.58,2.07 4.99,4.22 4.99,7.54 0,4.21 -3.69,6.79 -8.16,6.79 -4.31,0 -7.25,-3.03 -7.25,-6.23 0,-1.78 1.5,-1.96 1.86,-1.96 0.83,0 1.84,0.6 1.84,1.85 0,0.62 -0.25,1.84 -2.06,1.84 1.08,2.47 3.45,3.24 5.09,3.24 3.49,0 5.3,-2.71 5.3,-5.53 0,-3.04 -2.16,-5.44 -3.28,-6.69 l -8.39,-8.3 c -0.36,-0.31 -0.36,-0.39 -0.36,-1.36 h 14.36 z"
         id="path6478" />
      <polygon
         style="fill:#ff0000;stroke-width:0;fill-opacity:1"
         points="737.65,441.57 742.48,441.57 742.48,395.73 737.65,395.73 737.65,393.75 744.48,393.75 744.48,443.56 737.65,443.56 "
         id="polygon6480" />
    </g>
    <text
       xml:space="preserve"
       style="font-style:normal;font-weight:normal;font-size:10.58333302px;line-height:1.25;font-family:sans-serif;letter-spacing:0px;word-spacing:0px;fill:#000000;fill-opacity:1;stroke:none;stroke-width:0.26458332"
       x="-28.325258"
       y="90.733994"
       id="text6978"><tspan
         sodipodi:role="line"
         id="tspan6976"
         x="-28.325258"
         y="100.09776"
         style="stroke-width:0.26458332" /></text>
    <g
       id="g7403"
       transform="matrix(0.49334081,0,0,0.49334081,60.424576,47.566277)"
       style="fill:#ff0000;fill-opacity:1;stroke-width:2.02699637">
      <g
         word-spacing="normal"
         letter-spacing="normal"
         font-size-adjust="none"
         font-stretch="normal"
         font-weight="normal"
         font-variant="normal"
         font-style="normal"
         stroke-miterlimit="10.433"
         xml:space="preserve"
         transform="matrix(0.3,0,0,-0.3,-52.5,222.75)"
         id="g7401"
         style="font-style:normal;font-variant:normal;font-weight:normal;font-stretch:normal;letter-spacing:normal;word-spacing:normal;text-anchor:start;fill:#ff0000;fill-opacity:1;fill-rule:evenodd;stroke:#000000;stroke-width:2.02699637;stroke-linecap:butt;stroke-linejoin:miter;stroke-miterlimit:10.43299961;stroke-dasharray:none;stroke-dashoffset:0;stroke-opacity:1"><path
           id="path7397"
           d="m 470.61,421.95 0.21,1.28 3.39,13.56 c 0.43,1.74 0.54,1.89 2.68,1.89 h 4.79 c 4.14,0 6.78,-1.34 6.78,-4.78 0,-1.95 -1,-6.23 -2.94,-8.03 -2.5,-2.23 -5.48,-2.64 -7.69,-2.64 h -7.01 l -0.21,-1.28 h 8.47 c 7.08,0 14,5.17 14,10.75 0,3.84 -3.28,7.53 -9.81,7.53 h -16.14 c -0.95,0 -1.5,0 -1.5,-0.95 0,-0.6 0.45,-0.6 1.45,-0.6 0.64,0 1.55,-0.04 2.14,-0.09 0.8,-0.11 1.1,-0.25 1.1,-0.8 0,-0.2 -0.05,-0.36 -0.21,-0.95 l -6.67,-26.75 c -0.5,-1.95 -0.59,-2.34 -4.53,-2.34 -0.84,0 -1.39,0 -1.39,-0.96 0,-0.59 0.59,-0.59 0.73,-0.59 1.41,0 4.94,0.16 6.33,0.16 1.05,0 2.14,-0.07 3.19,-0.07 1.11,0 2.2,-0.09 3.25,-0.09 0.34,0 0.98,0 0.98,1 0,0.55 -0.43,0.55 -1.39,0.55 -1.84,0 -3.23,0 -3.23,0.89 0,0.29 0.09,0.54 0.14,0.84 z"
           inkscape:connector-curvature="0"
           style="fill:#ff0000;fill-opacity:1;stroke-width:0" /><path
           id="path7399"
           d="m 502.57,411.86 -0.08,-0.03 -0.08,-0.02 -0.08,-0.03 -0.08,-0.02 -0.07,-0.04 -0.08,-0.03 -0.07,-0.04 -0.07,-0.04 -0.06,-0.04 -0.07,-0.04 -0.06,-0.05 -0.06,-0.05 -0.06,-0.05 -0.05,-0.05 -0.05,-0.05 -0.05,-0.06 -0.05,-0.05 -0.04,-0.06 -0.04,-0.06 -0.04,-0.06 -0.03,-0.06 -0.04,-0.06 -0.03,-0.06 -0.02,-0.06 -0.03,-0.07 -0.02,-0.06 -0.01,-0.07 -0.02,-0.06 -0.01,-0.07 -0.01,-0.06 v -0.07 -0.06 c 0,-0.81 0.7,-1.12 1.15,-1.12 0.35,0 1.67,0.21 1.67,1.98 0,2.27 -2.5,3.03 -4.62,3.03 -5.44,0 -6.42,-4 -6.42,-5.08 0,-1.29 0.73,-2.12 1.22,-2.54 0.9,-0.71 1.53,-0.83 3.93,-1.25 0.74,-0.14 2.97,-0.57 2.97,-2.3 0,-0.59 -0.39,-1.92 -1.84,-2.8 -1.36,-0.76 -3.08,-0.76 -3.49,-0.76 -1.4,0 -3.39,0.31 -4.18,1.47 1.15,0.14 1.92,1 1.92,1.98 0,0.87 -0.63,1.28 -1.36,1.28 -1.02,0 -2.03,-0.8 -2.03,-2.33 0,-2.09 2.23,-3.37 5.61,-3.37 6.42,0 7.61,4.39 7.61,5.75 0,3.2 -3.54,3.83 -4.82,4.08 -0.31,0.06 -1.18,0.2 -1.39,0.26 -1.29,0.25 -1.92,0.99 -1.92,1.75 0,0.8 0.63,1.74 1.39,2.24 0.94,0.59 2.16,0.65 2.75,0.65 0.74,0 2.55,-0.11 3.31,-1.29 z"
           inkscape:connector-curvature="0"
           style="fill:#ff0000;fill-opacity:1;stroke-width:0" /></g>    </g>
    <flowRoot
       xml:space="preserve"
       id="flowRoot7548"
       style="fill:black;fill-opacity:1;stroke:none;font-family:sans-serif;font-style:normal;font-weight:normal;font-size:40px;line-height:1.25;letter-spacing:0px;word-spacing:0px"><flowRegion
         id="flowRegion7550"><rect
           id="rect7552"
           width="146.011"
           height="42.408031"
           x="189.40695"
           y="319.59891" /></flowRegion><flowPara
         id="flowPara7554"></flowPara></flowRoot>  </g>
</svg>
